<svg xmlns="http://www.w3.org/2000/svg" xmlns:xlink="http://www.w3.org/1999/xlink" width="197" zoomAndPan="magnify" viewBox="0 0 147.75 90.749999" height="121" preserveAspectRatio="xMidYMid meet" version="1.0"><defs><g/></defs><g fill="#000a8b" fill-opacity="1"><g transform="translate(14.949446, 57.005074)"><g><path d="M 34.59375 -28.40625 L 34.203125 -28.40625 C 33.679688 -30.75 32.300781 -32.5625 30.0625 -33.84375 C 27.820312 -35.132812 25.265625 -35.78125 22.390625 -35.78125 C 20.898438 -35.78125 19.296875 -35.550781 17.578125 -35.09375 C 15.867188 -34.632812 14.203125 -33.796875 12.578125 -32.578125 C 10.960938 -31.359375 9.617188 -29.59375 8.546875 -27.28125 C 7.472656 -24.96875 6.9375 -22.054688 6.9375 -18.546875 C 6.9375 -12.960938 8.238281 -8.5 10.84375 -5.15625 C 13.445312 -1.8125 17.628906 -0.140625 23.390625 -0.140625 C 25.660156 -0.140625 27.332031 -0.296875 28.40625 -0.609375 C 29.476562 -0.921875 30.164062 -1.34375 30.46875 -1.875 C 30.769531 -2.40625 30.921875 -3.128906 30.921875 -4.046875 L 30.921875 -10.609375 C 30.921875 -12.171875 30.582031 -13.203125 29.90625 -13.703125 C 29.226562 -14.210938 28.21875 -14.546875 26.875 -14.703125 L 26.875 -15.125 L 38.53125 -15.125 L 38.53125 -14.703125 C 37.46875 -14.585938 36.640625 -14.351562 36.046875 -14 C 35.460938 -13.65625 35.070312 -13.207031 34.875 -12.65625 C 34.6875 -12.101562 34.59375 -11.375 34.59375 -10.46875 L 34.59375 -0.484375 C 31.019531 0.472656 27.335938 0.953125 23.546875 0.953125 C 21.578125 0.953125 19.632812 0.785156 17.71875 0.453125 C 15.800781 0.128906 13.804688 -0.585938 11.734375 -1.703125 C 9.660156 -2.828125 7.828125 -4.484375 6.234375 -6.671875 C 3.847656 -9.960938 2.65625 -13.6875 2.65625 -17.84375 C 2.65625 -20.257812 3.101562 -22.613281 4 -24.90625 C 4.90625 -27.195312 6.203125 -29.242188 7.890625 -31.046875 C 9.585938 -32.859375 11.660156 -34.285156 14.109375 -35.328125 C 16.566406 -36.378906 19.289062 -36.90625 22.28125 -36.90625 C 23.425781 -36.90625 24.550781 -36.828125 25.65625 -36.671875 C 26.757812 -36.515625 28.410156 -36.203125 30.609375 -35.734375 C 31.460938 -35.546875 32.078125 -35.453125 32.453125 -35.453125 C 33.242188 -35.453125 33.828125 -35.847656 34.203125 -36.640625 L 34.59375 -36.640625 Z M 34.59375 -28.40625 "/></g></g></g><g fill="#000a8b" fill-opacity="1"><g transform="translate(54.38284, 57.703184)"><g><path d="M 39.828125 -35.859375 L 39.828125 -35.453125 C 39.148438 -35.367188 38.664062 -35.296875 38.375 -35.234375 C 38.082031 -35.179688 37.753906 -35.015625 37.390625 -34.734375 C 36.835938 -34.316406 36.492188 -33.921875 36.359375 -33.546875 C 36.222656 -33.171875 36.140625 -32.519531 36.109375 -31.59375 C 36.054688 -31.445312 36.054688 -31.300781 36.109375 -31.15625 L 37.34375 -4.53125 C 37.375 -3.40625 37.640625 -2.4375 38.140625 -1.625 C 38.648438 -0.8125 39.75 -0.398438 41.4375 -0.390625 L 41.4375 0 L 29.828125 0 L 29.828125 -0.390625 C 31.347656 -0.554688 32.375 -1 32.90625 -1.71875 C 33.445312 -2.4375 33.675781 -3.5625 33.59375 -5.09375 L 32.359375 -32.640625 L 32.25 -32.640625 L 19.59375 0 L 7.625 -31.453125 L 7.515625 -31.453125 L 6.234375 -6.03125 C 6.171875 -4.632812 6.253906 -3.550781 6.484375 -2.78125 C 6.722656 -2.007812 7.101562 -1.457031 7.625 -1.125 C 8.144531 -0.800781 8.914062 -0.554688 9.9375 -0.390625 L 9.9375 0 L 0.90625 0 L 0.90625 -0.390625 C 2.050781 -0.398438 2.925781 -0.671875 3.53125 -1.203125 C 4.132812 -1.742188 4.523438 -2.414062 4.703125 -3.21875 C 4.890625 -4.03125 5.035156 -5.132812 5.140625 -6.53125 L 6.578125 -32.8125 C 6.578125 -32.914062 6.476562 -33.09375 6.28125 -33.34375 C 6.082031 -33.59375 5.84375 -33.84375 5.5625 -34.09375 C 5.28125 -34.34375 5.007812 -34.539062 4.75 -34.6875 C 4.195312 -35.03125 3.71875 -35.226562 3.3125 -35.28125 C 2.90625 -35.34375 2.335938 -35.398438 1.609375 -35.453125 L 1.609375 -35.859375 L 9.9375 -35.859375 L 21.03125 -6.53125 L 32.3125 -35.859375 Z M 39.828125 -35.859375 "/></g></g></g><g fill="#ff6403" fill-opacity="1"><g transform="translate(95.5312, 57.005074)"><g><path d="M 34.15625 -27.828125 L 33.75 -27.828125 C 33.4375 -29.578125 32.609375 -31.0625 31.265625 -32.28125 C 29.929688 -33.5 28.394531 -34.382812 26.65625 -34.9375 C 24.914062 -35.5 23.296875 -35.78125 21.796875 -35.78125 C 19.734375 -35.78125 17.796875 -35.347656 15.984375 -34.484375 C 14.171875 -33.617188 12.609375 -32.394531 11.296875 -30.8125 C 9.984375 -29.226562 8.960938 -27.328125 8.234375 -25.109375 C 7.503906 -22.898438 7.140625 -20.492188 7.140625 -17.890625 C 7.140625 -15.378906 7.488281 -13.046875 8.1875 -10.890625 C 8.894531 -8.742188 9.925781 -6.878906 11.28125 -5.296875 C 12.632812 -3.710938 14.203125 -2.515625 15.984375 -1.703125 C 17.773438 -0.890625 19.757812 -0.484375 21.9375 -0.484375 C 23.75 -0.484375 25.742188 -0.851562 27.921875 -1.59375 C 30.097656 -2.332031 32.0625 -3.5625 33.8125 -5.28125 L 33.8125 -3.890625 C 31.65625 -2.222656 29.679688 -1 27.890625 -0.21875 C 26.097656 0.5625 23.863281 0.953125 21.1875 0.953125 C 18.351562 0.953125 15.769531 0.4375 13.4375 -0.59375 C 11.113281 -1.625 9.148438 -3.015625 7.546875 -4.765625 C 5.941406 -6.523438 4.722656 -8.5 3.890625 -10.6875 C 3.066406 -12.875 2.65625 -15.128906 2.65625 -17.453125 C 2.65625 -20.941406 3.515625 -24.179688 5.234375 -27.171875 C 6.953125 -30.171875 9.28125 -32.539062 12.21875 -34.28125 C 15.15625 -36.03125 18.347656 -36.90625 21.796875 -36.90625 C 23.921875 -36.90625 26.179688 -36.585938 28.578125 -35.953125 L 31.109375 -35.25 C 31.597656 -35.15625 32.015625 -35.109375 32.359375 -35.109375 C 32.984375 -35.109375 33.398438 -35.203125 33.609375 -35.390625 C 33.828125 -35.578125 33.992188 -35.910156 34.109375 -36.390625 L 34.5 -36.390625 Z M 34.15625 -27.828125 "/></g></g></g></svg>